<svg width="390" height="844" viewBox="0 0 390 844" fill="none" xmlns="http://www.w3.org/2000/svg">
<rect width="390" height="844" fill="#F5F7F6"/>
<path d="M36.2103 28V18.7109H36.0697L33.265 20.6875V18.7969L36.2103 16.7266H38.2181V28H36.2103ZM43.7966 28V18.7109H43.6559L40.8512 20.6875V18.7969L43.7966 16.7266H45.8044V28H43.7966ZM49.6484 28.1484C49.2943 28.1484 48.9974 28.0312 48.7578 27.7969C48.5234 27.5573 48.4062 27.2656 48.4062 26.9219C48.4062 26.5729 48.5234 26.2812 48.7578 26.0469C48.9974 25.8073 49.2943 25.6875 49.6484 25.6875C50.0078 25.6875 50.3047 25.8073 50.5391 26.0469C50.7734 26.2812 50.8906 26.5729 50.8906 26.9219C50.8906 27.2656 50.7734 27.5573 50.5391 27.7969C50.3047 28.0312 50.0078 28.1484 49.6484 28.1484ZM55.2347 28V18.7109H55.0941L52.2894 20.6875V18.7969L55.2347 16.7266H57.2425V28H55.2347ZM64.1256 28.2812C63.36 28.2812 62.6855 28.138 62.1022 27.8516C61.5189 27.5651 61.0553 27.1771 60.7116 26.6875C60.3678 26.1927 60.1699 25.638 60.1178 25.0234L60.11 24.9219H61.9616L61.9772 24.9766C62.0293 25.2839 62.1517 25.5625 62.3444 25.8125C62.5371 26.0625 62.7871 26.263 63.0944 26.4141C63.4017 26.5599 63.748 26.6328 64.1334 26.6328C64.5709 26.6328 64.9564 26.5365 65.2897 26.3438C65.6282 26.151 65.8913 25.8854 66.0788 25.5469C66.2663 25.2031 66.36 24.8125 66.36 24.375V24.3594C66.36 23.9219 66.2636 23.5365 66.0709 23.2031C65.8834 22.8646 65.623 22.6016 65.2897 22.4141C64.9616 22.2214 64.5814 22.125 64.1491 22.125C63.8314 22.125 63.5371 22.1719 63.2663 22.2656C63.0006 22.3594 62.7636 22.5 62.5553 22.6875C62.4511 22.776 62.3548 22.875 62.2663 22.9844C62.1777 23.0885 62.0996 23.2031 62.0319 23.3281H60.3053L60.8522 16.7266H67.6178V18.375H62.4225L62.1022 21.8125H62.2428C62.3991 21.5573 62.597 21.3411 62.8366 21.1641C63.0761 20.9818 63.3496 20.8438 63.6569 20.75C63.9642 20.651 64.2923 20.6016 64.6413 20.6016C65.3496 20.6016 65.9746 20.763 66.5163 21.0859C67.0631 21.4036 67.4928 21.8438 67.8053 22.4062C68.1178 22.9635 68.2741 23.6016 68.2741 24.3203V24.3359C68.2741 25.1172 68.097 25.8047 67.7428 26.3984C67.3939 26.987 66.9069 27.4479 66.2819 27.7812C65.6569 28.1146 64.9381 28.2812 64.1256 28.2812Z" fill="black"/>
<path d="M322.25 19.5C322.25 18.9477 322.698 18.5 323.25 18.5H324.25C324.802 18.5 325.25 18.9477 325.25 19.5V27.5C325.25 28.0523 324.802 28.5 324.25 28.5H323.25C322.698 28.5 322.25 28.0523 322.25 27.5V19.5Z" fill="black"/>
<path d="M327.25 17.5C327.25 16.9477 327.698 16.5 328.25 16.5H329.25C329.802 16.5 330.25 16.9477 330.25 17.5V27.5C330.25 28.0523 329.802 28.5 329.25 28.5H328.25C327.698 28.5 327.25 28.0523 327.25 27.5V17.5Z" fill="black"/>
<path d="M317.25 23C317.25 22.4477 317.698 22 318.25 22H319.25C319.802 22 320.25 22.4477 320.25 23V27.5C320.25 28.0523 319.802 28.5 319.25 28.5H318.25C317.698 28.5 317.25 28.0523 317.25 27.5V23Z" fill="black"/>
<path d="M312.25 25.5C312.25 24.9477 312.698 24.5 313.25 24.5H314.25C314.802 24.5 315.25 24.9477 315.25 25.5V27.5C315.25 28.0523 314.802 28.5 314.25 28.5H313.25C312.698 28.5 312.25 28.0523 312.25 27.5V25.5Z" fill="black"/>
<path opacity="0.35" d="M339.25 17H354.25C356.183 17 357.75 18.567 357.75 20.5V25.5C357.75 27.433 356.183 29 354.25 29H339.25C337.317 29 335.75 27.433 335.75 25.5V20.5C335.75 18.567 337.317 17 339.25 17Z" stroke="black"/>
<path opacity="0.4" d="M359.25 21.5V25.7203C360.099 25.3629 360.651 24.5314 360.651 23.6102C360.651 22.6889 360.099 21.8574 359.25 21.5Z" fill="black"/>
<path d="M337.25 20.5C337.25 19.3954 338.145 18.5 339.25 18.5H348.25C349.355 18.5 350.25 19.3954 350.25 20.5V25.5C350.25 26.6046 349.355 27.5 348.25 27.5H339.25C338.145 27.5 337.25 26.6046 337.25 25.5V20.5Z" fill="black"/>
<rect x="16" y="700" width="358" height="52" rx="26" fill="url(#paint0_linear_65_1539)"/>
<path d="M167.582 732.225C166.507 732.225 165.595 731.987 164.845 731.512C164.095 731.037 163.522 730.377 163.127 729.532C162.737 728.687 162.542 727.71 162.542 726.6C162.542 725.49 162.737 724.512 163.127 723.667C163.522 722.822 164.095 722.162 164.845 721.687C165.595 721.212 166.507 720.975 167.582 720.975C168.832 720.975 169.86 721.292 170.665 721.927C171.475 722.562 172.032 723.417 172.337 724.492L170.98 724.852C170.76 724.047 170.367 723.412 169.802 722.947C169.237 722.482 168.497 722.25 167.582 722.25C166.777 722.25 166.107 722.432 165.572 722.797C165.037 723.162 164.635 723.672 164.365 724.327C164.095 724.977 163.957 725.735 163.952 726.6C163.947 727.46 164.08 728.217 164.35 728.872C164.62 729.522 165.025 730.032 165.565 730.402C166.105 730.767 166.777 730.95 167.582 730.95C168.497 730.95 169.237 730.717 169.802 730.252C170.367 729.782 170.76 729.147 170.98 728.347L172.337 728.707C172.032 729.777 171.475 730.632 170.665 731.272C169.86 731.907 168.832 732.225 167.582 732.225ZM177.432 732.225C176.627 732.225 175.932 732.043 175.347 731.677C174.767 731.312 174.32 730.807 174.005 730.162C173.69 729.517 173.532 728.777 173.532 727.942C173.532 727.092 173.692 726.347 174.012 725.707C174.332 725.067 174.785 724.57 175.37 724.215C175.955 723.855 176.642 723.675 177.432 723.675C178.242 723.675 178.94 723.857 179.525 724.222C180.11 724.582 180.557 725.085 180.867 725.73C181.182 726.37 181.34 727.107 181.34 727.942C181.34 728.787 181.182 729.532 180.867 730.177C180.552 730.817 180.102 731.32 179.517 731.685C178.932 732.045 178.237 732.225 177.432 732.225ZM177.432 730.957C178.272 730.957 178.897 730.677 179.307 730.117C179.717 729.557 179.922 728.832 179.922 727.942C179.922 727.027 179.715 726.3 179.3 725.76C178.885 725.215 178.262 724.942 177.432 724.942C176.867 724.942 176.402 725.07 176.037 725.325C175.672 725.58 175.4 725.932 175.22 726.382C175.04 726.832 174.95 727.352 174.95 727.942C174.95 728.852 175.16 729.582 175.58 730.132C176 730.682 176.617 730.957 177.432 730.957ZM188.758 732V727.942C188.758 727.557 188.723 727.187 188.653 726.832C188.588 726.477 188.471 726.16 188.301 725.88C188.136 725.595 187.911 725.37 187.626 725.205C187.346 725.04 186.991 724.957 186.561 724.957C186.226 724.957 185.921 725.015 185.646 725.13C185.376 725.24 185.143 725.41 184.948 725.64C184.753 725.87 184.601 726.16 184.491 726.51C184.386 726.855 184.333 727.262 184.333 727.732L183.456 727.462C183.456 726.677 183.596 726.005 183.876 725.445C184.161 724.88 184.558 724.447 185.068 724.147C185.583 723.842 186.188 723.69 186.883 723.69C187.408 723.69 187.856 723.772 188.226 723.937C188.596 724.102 188.903 724.322 189.148 724.597C189.393 724.867 189.586 725.172 189.726 725.512C189.866 725.847 189.963 726.19 190.018 726.54C190.078 726.885 190.108 727.212 190.108 727.522V732H188.758ZM182.983 732V723.9H184.183V726.067H184.333V732H182.983ZM196.581 732C196.101 732.095 195.626 732.133 195.156 732.113C194.691 732.098 194.276 732.005 193.911 731.835C193.546 731.66 193.268 731.39 193.078 731.025C192.918 730.705 192.831 730.382 192.816 730.057C192.806 729.727 192.801 729.355 192.801 728.94V721.65H194.136V728.88C194.136 729.21 194.138 729.492 194.143 729.727C194.153 729.962 194.206 730.165 194.301 730.335C194.481 730.655 194.766 730.842 195.156 730.898C195.551 730.952 196.026 730.937 196.581 730.852V732ZM191.158 725.002V723.9H196.581V725.002H191.158ZM198.375 722.467V721.087H199.71V722.467H198.375ZM198.375 732V723.9H199.71V732H198.375ZM207.728 732V727.942C207.728 727.557 207.693 727.187 207.623 726.832C207.558 726.477 207.441 726.16 207.271 725.88C207.106 725.595 206.881 725.37 206.596 725.205C206.316 725.04 205.961 724.957 205.531 724.957C205.196 724.957 204.891 725.015 204.616 725.13C204.346 725.24 204.113 725.41 203.918 725.64C203.723 725.87 203.571 726.16 203.461 726.51C203.356 726.855 203.303 727.262 203.303 727.732L202.426 727.462C202.426 726.677 202.566 726.005 202.846 725.445C203.131 724.88 203.528 724.447 204.038 724.147C204.553 723.842 205.158 723.69 205.853 723.69C206.378 723.69 206.826 723.772 207.196 723.937C207.566 724.102 207.873 724.322 208.118 724.597C208.363 724.867 208.556 725.172 208.696 725.512C208.836 725.847 208.933 726.19 208.988 726.54C209.048 726.885 209.078 727.212 209.078 727.522V732H207.728ZM201.953 732V723.9H203.153V726.067H203.303V732H201.953ZM214.103 732.21C213.583 732.21 213.136 732.128 212.761 731.962C212.391 731.797 212.083 731.577 211.838 731.302C211.593 731.027 211.401 730.722 211.261 730.387C211.121 730.052 211.021 729.71 210.961 729.36C210.906 729.01 210.878 728.682 210.878 728.377V723.9H212.228V727.957C212.228 728.337 212.263 728.705 212.333 729.06C212.403 729.415 212.521 729.735 212.686 730.02C212.856 730.305 213.081 730.53 213.361 730.695C213.646 730.86 214.001 730.942 214.426 730.942C214.761 730.942 215.066 730.885 215.341 730.77C215.616 730.655 215.851 730.485 216.046 730.26C216.241 730.03 216.391 729.74 216.496 729.39C216.601 729.04 216.653 728.632 216.653 728.167L217.531 728.437C217.531 729.217 217.388 729.89 217.103 730.455C216.823 731.02 216.426 731.455 215.911 731.76C215.401 732.06 214.798 732.21 214.103 732.21ZM216.803 732V729.832H216.653V723.9H217.996V732H216.803ZM223.605 732.225C222.81 732.225 222.115 732.05 221.52 731.7C220.93 731.345 220.47 730.852 220.14 730.222C219.81 729.587 219.645 728.847 219.645 728.002C219.645 727.117 219.808 726.352 220.133 725.707C220.458 725.057 220.91 724.557 221.49 724.207C222.075 723.852 222.76 723.675 223.545 723.675C224.36 723.675 225.053 723.862 225.623 724.237C226.198 724.612 226.628 725.147 226.913 725.842C227.203 726.537 227.328 727.365 227.288 728.325H225.938V727.845C225.923 726.85 225.72 726.107 225.33 725.617C224.94 725.122 224.36 724.875 223.59 724.875C222.765 724.875 222.138 725.14 221.708 725.67C221.278 726.2 221.063 726.96 221.063 727.95C221.063 728.905 221.278 729.645 221.708 730.17C222.138 730.695 222.75 730.957 223.545 730.957C224.08 730.957 224.545 730.835 224.94 730.59C225.335 730.345 225.645 729.992 225.87 729.532L227.153 729.975C226.838 730.69 226.363 731.245 225.728 731.64C225.098 732.03 224.39 732.225 223.605 732.225ZM220.613 728.325V727.252H226.598V728.325H220.613Z" fill="#F5F7F6"/>
<path d="M144.401 78.27C143.399 78.27 142.514 78.063 141.746 77.649C140.978 77.235 140.375 76.656 139.937 75.912C139.505 75.162 139.289 74.283 139.289 73.275V65.049L140.909 65.04V73.14C140.909 73.752 141.011 74.286 141.215 74.742C141.425 75.192 141.701 75.567 142.043 75.867C142.385 76.167 142.76 76.392 143.168 76.542C143.582 76.686 143.993 76.758 144.401 76.758C144.815 76.758 145.229 76.683 145.643 76.533C146.057 76.383 146.432 76.161 146.768 75.867C147.11 75.567 147.383 75.189 147.587 74.733C147.791 74.277 147.893 73.746 147.893 73.14V65.04H149.513V73.275C149.513 74.277 149.294 75.153 148.856 75.903C148.424 76.653 147.824 77.235 147.056 77.649C146.288 78.063 145.403 78.27 144.401 78.27ZM156.497 78.27C155.585 78.27 154.817 78.045 154.193 77.595C153.569 77.139 153.095 76.524 152.771 75.75C152.453 74.97 152.294 74.097 152.294 73.131C152.294 72.153 152.453 71.277 152.771 70.503C153.095 69.729 153.569 69.12 154.193 68.676C154.823 68.232 155.594 68.01 156.506 68.01C157.406 68.01 158.18 68.235 158.828 68.685C159.482 69.129 159.983 69.738 160.331 70.512C160.679 71.286 160.853 72.159 160.853 73.131C160.853 74.103 160.679 74.976 160.331 75.75C159.983 76.524 159.482 77.139 158.828 77.595C158.18 78.045 157.403 78.27 156.497 78.27ZM152.024 82.32V68.28H153.455V75.435H153.635V82.32H152.024ZM156.299 76.803C156.941 76.803 157.472 76.641 157.892 76.317C158.312 75.993 158.627 75.555 158.837 75.003C159.047 74.445 159.152 73.821 159.152 73.131C159.152 72.447 159.047 71.829 158.837 71.277C158.633 70.725 158.315 70.287 157.883 69.963C157.457 69.639 156.914 69.477 156.254 69.477C155.624 69.477 155.102 69.633 154.688 69.945C154.274 70.251 153.965 70.68 153.761 71.232C153.557 71.778 153.455 72.411 153.455 73.131C153.455 73.839 153.554 74.472 153.752 75.03C153.956 75.582 154.268 76.017 154.688 76.335C155.108 76.647 155.645 76.803 156.299 76.803ZM163.006 78V64.77H164.608V78H163.006ZM171.449 78.27C170.483 78.27 169.649 78.051 168.947 77.613C168.251 77.175 167.714 76.569 167.336 75.795C166.958 75.021 166.769 74.133 166.769 73.131C166.769 72.111 166.961 71.217 167.345 70.449C167.729 69.681 168.272 69.084 168.974 68.658C169.676 68.226 170.501 68.01 171.449 68.01C172.421 68.01 173.258 68.229 173.96 68.667C174.662 69.099 175.199 69.702 175.571 70.476C175.949 71.244 176.138 72.129 176.138 73.131C176.138 74.145 175.949 75.039 175.571 75.813C175.193 76.581 174.653 77.184 173.951 77.622C173.249 78.054 172.415 78.27 171.449 78.27ZM171.449 76.749C172.457 76.749 173.207 76.413 173.699 75.741C174.191 75.069 174.437 74.199 174.437 73.131C174.437 72.033 174.188 71.16 173.69 70.512C173.192 69.858 172.445 69.531 171.449 69.531C170.771 69.531 170.213 69.684 169.775 69.99C169.337 70.296 169.01 70.719 168.794 71.259C168.578 71.799 168.47 72.423 168.47 73.131C168.47 74.223 168.722 75.099 169.226 75.759C169.73 76.419 170.471 76.749 171.449 76.749ZM180.882 78.27C180.156 78.27 179.547 78.138 179.055 77.874C178.569 77.604 178.2 77.25 177.948 76.812C177.702 76.374 177.579 75.894 177.579 75.372C177.579 74.862 177.675 74.421 177.867 74.049C178.065 73.671 178.341 73.359 178.695 73.113C179.049 72.861 179.472 72.663 179.964 72.519C180.426 72.393 180.942 72.285 181.512 72.195C182.088 72.099 182.67 72.012 183.258 71.934C183.846 71.856 184.395 71.781 184.905 71.709L184.329 72.042C184.347 71.178 184.173 70.539 183.807 70.125C183.447 69.711 182.823 69.504 181.935 69.504C181.347 69.504 180.831 69.639 180.387 69.909C179.949 70.173 179.64 70.605 179.46 71.205L177.939 70.746C178.173 69.894 178.626 69.225 179.298 68.739C179.97 68.253 180.855 68.01 181.953 68.01C182.835 68.01 183.591 68.169 184.221 68.487C184.857 68.799 185.313 69.273 185.589 69.909C185.727 70.209 185.814 70.536 185.85 70.89C185.886 71.238 185.904 71.604 185.904 71.988V78H184.482V75.669L184.815 75.885C184.449 76.671 183.936 77.265 183.276 77.667C182.622 78.069 181.824 78.27 180.882 78.27ZM181.125 76.929C181.701 76.929 182.199 76.827 182.619 76.623C183.045 76.413 183.387 76.14 183.645 75.804C183.903 75.462 184.071 75.09 184.149 74.688C184.239 74.388 184.287 74.055 184.293 73.689C184.305 73.317 184.311 73.032 184.311 72.834L184.869 73.077C184.347 73.149 183.834 73.218 183.33 73.284C182.826 73.35 182.349 73.422 181.899 73.5C181.449 73.572 181.044 73.659 180.684 73.761C180.42 73.845 180.171 73.953 179.937 74.085C179.709 74.217 179.523 74.388 179.379 74.598C179.241 74.802 179.172 75.057 179.172 75.363C179.172 75.627 179.238 75.879 179.37 76.119C179.508 76.359 179.718 76.554 180 76.704C180.288 76.854 180.663 76.929 181.125 76.929ZM192.06 78.27C191.154 78.27 190.377 78.045 189.729 77.595C189.081 77.139 188.58 76.524 188.226 75.75C187.878 74.976 187.704 74.103 187.704 73.131C187.704 72.159 187.878 71.286 188.226 70.512C188.58 69.738 189.081 69.129 189.729 68.685C190.377 68.235 191.151 68.01 192.051 68.01C192.969 68.01 193.74 68.232 194.364 68.676C194.988 69.12 195.459 69.729 195.777 70.503C196.101 71.277 196.263 72.153 196.263 73.131C196.263 74.097 196.101 74.97 195.777 75.75C195.459 76.524 194.988 77.139 194.364 77.595C193.74 78.045 192.972 78.27 192.06 78.27ZM192.258 76.803C192.912 76.803 193.449 76.647 193.869 76.335C194.289 76.017 194.598 75.582 194.796 75.03C195 74.472 195.102 73.839 195.102 73.131C195.102 72.411 195 71.778 194.796 71.232C194.598 70.68 194.292 70.251 193.878 69.945C193.464 69.633 192.939 69.477 192.303 69.477C191.643 69.477 191.097 69.639 190.665 69.963C190.239 70.287 189.921 70.725 189.711 71.277C189.507 71.829 189.405 72.447 189.405 73.131C189.405 73.821 189.51 74.445 189.72 75.003C189.93 75.555 190.245 75.993 190.665 76.317C191.091 76.641 191.622 76.803 192.258 76.803ZM195.102 78V70.845H194.922V65.04H196.533V78H195.102ZM202.658 78V65.04H207.779C207.905 65.04 208.055 65.046 208.229 65.058C208.403 65.064 208.571 65.082 208.733 65.112C209.435 65.22 210.023 65.46 210.497 65.832C210.977 66.204 211.337 66.675 211.577 67.245C211.817 67.809 211.937 68.436 211.937 69.126C211.937 69.81 211.814 70.437 211.568 71.007C211.328 71.571 210.968 72.042 210.488 72.42C210.014 72.792 209.429 73.032 208.733 73.14C208.571 73.164 208.403 73.182 208.229 73.194C208.055 73.206 207.905 73.212 207.779 73.212H204.26V78H202.658ZM204.26 71.691H207.725C207.839 71.691 207.968 71.685 208.112 71.673C208.262 71.661 208.403 71.64 208.535 71.61C208.949 71.514 209.285 71.34 209.543 71.088C209.807 70.83 209.999 70.53 210.119 70.188C210.239 69.84 210.299 69.486 210.299 69.126C210.299 68.766 210.239 68.415 210.119 68.073C209.999 67.725 209.807 67.422 209.543 67.164C209.285 66.906 208.949 66.732 208.535 66.642C208.403 66.606 208.262 66.585 208.112 66.579C207.968 66.567 207.839 66.561 207.725 66.561H204.26V71.691ZM220.654 78V73.131C220.654 72.669 220.612 72.225 220.528 71.799C220.45 71.373 220.309 70.992 220.105 70.656C219.907 70.314 219.637 70.044 219.295 69.846C218.959 69.648 218.533 69.549 218.017 69.549C217.615 69.549 217.249 69.618 216.919 69.756C216.595 69.888 216.316 70.092 216.082 70.368C215.848 70.644 215.665 70.992 215.533 71.412C215.407 71.826 215.344 72.315 215.344 72.879L214.291 72.555C214.291 71.613 214.459 70.806 214.795 70.134C215.137 69.456 215.614 68.937 216.226 68.577C216.844 68.211 217.57 68.028 218.404 68.028C219.034 68.028 219.571 68.127 220.015 68.325C220.459 68.523 220.828 68.787 221.122 69.117C221.416 69.441 221.647 69.807 221.815 70.215C221.983 70.617 222.1 71.028 222.166 71.448C222.238 71.862 222.274 72.255 222.274 72.627V78H220.654ZM213.724 78V65.04H215.164V72.195H215.344V78H213.724ZM228.754 78.27C227.788 78.27 226.954 78.051 226.252 77.613C225.556 77.175 225.019 76.569 224.641 75.795C224.263 75.021 224.074 74.133 224.074 73.131C224.074 72.111 224.266 71.217 224.65 70.449C225.034 69.681 225.577 69.084 226.279 68.658C226.981 68.226 227.806 68.01 228.754 68.01C229.726 68.01 230.563 68.229 231.265 68.667C231.967 69.099 232.504 69.702 232.876 70.476C233.254 71.244 233.443 72.129 233.443 73.131C233.443 74.145 233.254 75.039 232.876 75.813C232.498 76.581 231.958 77.184 231.256 77.622C230.554 78.054 229.72 78.27 228.754 78.27ZM228.754 76.749C229.762 76.749 230.512 76.413 231.004 75.741C231.496 75.069 231.742 74.199 231.742 73.131C231.742 72.033 231.493 71.16 230.995 70.512C230.497 69.858 229.75 69.531 228.754 69.531C228.076 69.531 227.518 69.684 227.08 69.99C226.642 70.296 226.315 70.719 226.099 71.259C225.883 71.799 225.775 72.423 225.775 73.131C225.775 74.223 226.027 75.099 226.531 75.759C227.035 76.419 227.776 76.749 228.754 76.749ZM240.851 78C240.275 78.114 239.705 78.159 239.141 78.135C238.583 78.117 238.085 78.006 237.647 77.802C237.209 77.592 236.876 77.268 236.648 76.83C236.456 76.446 236.351 76.059 236.333 75.669C236.321 75.273 236.315 74.826 236.315 74.328V65.58H237.917V74.256C237.917 74.652 237.92 74.991 237.926 75.273C237.938 75.555 238.001 75.798 238.115 76.002C238.331 76.386 238.673 76.611 239.141 76.677C239.615 76.743 240.185 76.725 240.851 76.623V78ZM234.344 69.603V68.28H240.851V69.603H234.344ZM246.56 78.27C245.594 78.27 244.76 78.051 244.058 77.613C243.362 77.175 242.825 76.569 242.447 75.795C242.069 75.021 241.88 74.133 241.88 73.131C241.88 72.111 242.072 71.217 242.456 70.449C242.84 69.681 243.383 69.084 244.085 68.658C244.787 68.226 245.612 68.01 246.56 68.01C247.532 68.01 248.369 68.229 249.071 68.667C249.773 69.099 250.31 69.702 250.682 70.476C251.06 71.244 251.249 72.129 251.249 73.131C251.249 74.145 251.06 75.039 250.682 75.813C250.304 76.581 249.764 77.184 249.062 77.622C248.36 78.054 247.526 78.27 246.56 78.27ZM246.56 76.749C247.568 76.749 248.318 76.413 248.81 75.741C249.302 75.069 249.548 74.199 249.548 73.131C249.548 72.033 249.299 71.16 248.801 70.512C248.303 69.858 247.556 69.531 246.56 69.531C245.882 69.531 245.324 69.684 244.886 69.99C244.448 70.296 244.121 70.719 243.905 71.259C243.689 71.799 243.581 72.423 243.581 73.131C243.581 74.223 243.833 75.099 244.337 75.759C244.841 76.419 245.582 76.749 246.56 76.749Z" fill="#111111"/>
<rect x="16" y="46" width="48" height="48" rx="24" fill="white"/>
<path d="M33.5 70H47" stroke="#111111" stroke-width="1.5" stroke-linecap="round" stroke-linejoin="round"/>
<path d="M39 76C39 76 33 71.5811 33 70C33 68.4188 39 64 39 64" stroke="#111111" stroke-width="1.5" stroke-linecap="round" stroke-linejoin="round"/>
<path d="M98.0109 176V152.16H106.683C108.283 152.16 109.691 152.459 110.907 153.056C112.144 153.632 113.104 154.485 113.787 155.616C114.47 156.725 114.811 158.059 114.811 159.616C114.811 161.152 114.459 162.475 113.755 163.584C113.072 164.693 112.123 165.547 110.907 166.144C109.691 166.741 108.283 167.04 106.683 167.04H101.787V176H98.0109ZM101.787 163.68H106.779C107.632 163.68 108.379 163.509 109.019 163.168C109.659 162.827 110.16 162.357 110.523 161.76C110.886 161.141 111.067 160.416 111.067 159.584C111.067 158.752 110.886 158.037 110.523 157.44C110.16 156.821 109.659 156.352 109.019 156.032C108.379 155.691 107.632 155.52 106.779 155.52H101.787V163.68ZM118.346 176V158.688H121.802V162.176L121.482 161.664C121.866 160.533 122.485 159.723 123.338 159.232C124.192 158.72 125.216 158.464 126.41 158.464H127.466V161.76H125.962C124.768 161.76 123.797 162.133 123.05 162.88C122.325 163.605 121.962 164.651 121.962 166.016V176H118.346ZM138.292 176.384C136.628 176.384 135.103 175.989 133.716 175.2C132.351 174.411 131.263 173.333 130.452 171.968C129.641 170.603 129.236 169.056 129.236 167.328C129.236 165.579 129.641 164.032 130.452 162.688C131.263 161.323 132.351 160.256 133.716 159.488C135.081 158.699 136.607 158.304 138.292 158.304C139.999 158.304 141.524 158.699 142.868 159.488C144.233 160.256 145.311 161.323 146.1 162.688C146.911 164.032 147.316 165.579 147.316 167.328C147.316 169.077 146.911 170.635 146.1 172C145.289 173.365 144.201 174.443 142.836 175.232C141.471 176 139.956 176.384 138.292 176.384ZM138.292 173.024C139.316 173.024 140.223 172.779 141.012 172.288C141.801 171.797 142.42 171.125 142.868 170.272C143.337 169.397 143.572 168.416 143.572 167.328C143.572 166.24 143.337 165.269 142.868 164.416C142.42 163.563 141.801 162.891 141.012 162.4C140.223 161.909 139.316 161.664 138.292 161.664C137.289 161.664 136.383 161.909 135.572 162.4C134.783 162.891 134.153 163.563 133.684 164.416C133.236 165.269 133.012 166.24 133.012 167.328C133.012 168.416 133.236 169.397 133.684 170.272C134.153 171.125 134.783 171.797 135.572 172.288C136.383 172.779 137.289 173.024 138.292 173.024ZM152.33 176V161.952H149.13V158.688H152.33V157.792C152.33 156.491 152.596 155.403 153.13 154.528C153.663 153.632 154.399 152.949 155.338 152.48C156.298 152.011 157.396 151.776 158.634 151.776C158.868 151.776 159.135 151.797 159.434 151.84C159.732 151.861 159.978 151.893 160.17 151.936V155.072C159.999 155.029 159.807 155.008 159.594 155.008C159.38 154.987 159.21 154.976 159.082 154.976C158.122 154.976 157.354 155.2 156.778 155.648C156.202 156.075 155.914 156.789 155.914 157.792V158.688H164.202V161.952H155.914V176H152.33ZM162.506 176V158.688H166.09V176H162.506ZM169.909 176V151.776H173.525V176H169.909ZM185.881 176.384C184.153 176.384 182.617 175.989 181.273 175.2C179.95 174.389 178.915 173.301 178.169 171.936C177.422 170.549 177.049 169.003 177.049 167.296C177.049 165.547 177.422 164 178.169 162.656C178.937 161.312 179.961 160.256 181.241 159.488C182.521 158.699 183.971 158.304 185.593 158.304C186.894 158.304 188.057 158.528 189.081 158.976C190.105 159.424 190.969 160.043 191.673 160.832C192.377 161.6 192.91 162.485 193.273 163.488C193.657 164.491 193.849 165.557 193.849 166.688C193.849 166.965 193.838 167.253 193.817 167.552C193.795 167.851 193.753 168.128 193.689 168.384H179.897V165.504H191.641L189.913 166.816C190.126 165.771 190.051 164.843 189.689 164.032C189.347 163.2 188.814 162.549 188.089 162.08C187.385 161.589 186.553 161.344 185.593 161.344C184.633 161.344 183.779 161.589 183.033 162.08C182.286 162.549 181.71 163.232 181.305 164.128C180.899 165.003 180.739 166.069 180.825 167.328C180.718 168.501 180.878 169.525 181.305 170.4C181.753 171.275 182.371 171.957 183.161 172.448C183.971 172.939 184.889 173.184 185.913 173.184C186.958 173.184 187.843 172.949 188.569 172.48C189.315 172.011 189.902 171.403 190.329 170.656L193.273 172.096C192.931 172.907 192.398 173.643 191.673 174.304C190.969 174.944 190.115 175.456 189.113 175.84C188.131 176.203 187.054 176.384 185.881 176.384ZM203.323 176V152.16H211.995C213.595 152.16 215.003 152.459 216.219 153.056C217.457 153.632 218.417 154.485 219.099 155.616C219.782 156.725 220.123 158.059 220.123 159.616C220.123 161.152 219.771 162.475 219.067 163.584C218.385 164.693 217.435 165.547 216.219 166.144C215.003 166.741 213.595 167.04 211.995 167.04H207.099V176H203.323ZM207.099 163.68H212.091C212.945 163.68 213.691 163.509 214.331 163.168C214.971 162.827 215.473 162.357 215.835 161.76C216.198 161.141 216.379 160.416 216.379 159.584C216.379 158.752 216.198 158.037 215.835 157.44C215.473 156.821 214.971 156.352 214.331 156.032C213.691 155.691 212.945 155.52 212.091 155.52H207.099V163.68ZM223.659 176V151.776H227.275V162.08L226.699 161.632C227.126 160.544 227.808 159.723 228.747 159.168C229.686 158.592 230.774 158.304 232.011 158.304C233.291 158.304 234.422 158.581 235.403 159.136C236.384 159.691 237.152 160.459 237.707 161.44C238.262 162.421 238.539 163.541 238.539 164.8V176H234.955V165.792C234.955 164.917 234.784 164.181 234.443 163.584C234.123 162.965 233.675 162.496 233.099 162.176C232.523 161.835 231.862 161.664 231.115 161.664C230.39 161.664 229.728 161.835 229.131 162.176C228.555 162.496 228.096 162.965 227.755 163.584C227.435 164.203 227.275 164.939 227.275 165.792V176H223.659ZM250.761 176.384C249.097 176.384 247.572 175.989 246.185 175.2C244.82 174.411 243.732 173.333 242.921 171.968C242.11 170.603 241.705 169.056 241.705 167.328C241.705 165.579 242.11 164.032 242.921 162.688C243.732 161.323 244.82 160.256 246.185 159.488C247.55 158.699 249.076 158.304 250.761 158.304C252.468 158.304 253.993 158.699 255.337 159.488C256.702 160.256 257.78 161.323 258.569 162.688C259.38 164.032 259.785 165.579 259.785 167.328C259.785 169.077 259.38 170.635 258.569 172C257.758 173.365 256.67 174.443 255.305 175.232C253.94 176 252.425 176.384 250.761 176.384ZM250.761 173.024C251.785 173.024 252.692 172.779 253.481 172.288C254.27 171.797 254.889 171.125 255.337 170.272C255.806 169.397 256.041 168.416 256.041 167.328C256.041 166.24 255.806 165.269 255.337 164.416C254.889 163.563 254.27 162.891 253.481 162.4C252.692 161.909 251.785 161.664 250.761 161.664C249.758 161.664 248.852 161.909 248.041 162.4C247.252 162.891 246.622 163.563 246.153 164.416C245.705 165.269 245.481 166.24 245.481 167.328C245.481 168.416 245.705 169.397 246.153 170.272C246.622 171.125 247.252 171.797 248.041 172.288C248.852 172.779 249.758 173.024 250.761 173.024ZM270.491 176.192C268.677 176.192 267.269 175.68 266.267 174.656C265.264 173.632 264.763 172.192 264.763 170.336V161.952H261.723V158.688H262.203C263.013 158.688 263.643 158.453 264.091 157.984C264.539 157.515 264.763 156.875 264.763 156.064V154.72H268.379V158.688H272.315V161.952H268.379V170.176C268.379 170.773 268.475 171.285 268.667 171.712C268.859 172.117 269.168 172.437 269.595 172.672C270.021 172.885 270.576 172.992 271.259 172.992C271.429 172.992 271.621 172.981 271.835 172.96C272.048 172.939 272.251 172.917 272.443 172.896V176C272.144 176.043 271.813 176.085 271.451 176.128C271.088 176.171 270.768 176.192 270.491 176.192ZM284.011 176.384C282.347 176.384 280.822 175.989 279.435 175.2C278.07 174.411 276.982 173.333 276.171 171.968C275.36 170.603 274.955 169.056 274.955 167.328C274.955 165.579 275.36 164.032 276.171 162.688C276.982 161.323 278.07 160.256 279.435 159.488C280.8 158.699 282.326 158.304 284.011 158.304C285.718 158.304 287.243 158.699 288.587 159.488C289.952 160.256 291.03 161.323 291.819 162.688C292.63 164.032 293.035 165.579 293.035 167.328C293.035 169.077 292.63 170.635 291.819 172C291.008 173.365 289.92 174.443 288.555 175.232C287.19 176 285.675 176.384 284.011 176.384ZM284.011 173.024C285.035 173.024 285.942 172.779 286.731 172.288C287.52 171.797 288.139 171.125 288.587 170.272C289.056 169.397 289.291 168.416 289.291 167.328C289.291 166.24 289.056 165.269 288.587 164.416C288.139 163.563 287.52 162.891 286.731 162.4C285.942 161.909 285.035 161.664 284.011 161.664C283.008 161.664 282.102 161.909 281.291 162.4C280.502 162.891 279.872 163.563 279.403 164.416C278.955 165.269 278.731 166.24 278.731 167.328C278.731 168.416 278.955 169.397 279.403 170.272C279.872 171.125 280.502 171.797 281.291 172.288C282.102 172.779 283.008 173.024 284.011 173.024Z" fill="#1A1A1A"/>
<path d="M79.1169 208L82.5889 197.92H83.9539L87.4259 208H86.3549L83.0579 198.494H83.4639L80.1879 208H79.1169ZM80.6639 205.557V204.591H85.8719V205.557H80.6639ZM94.8877 208.21C94.1924 208.21 93.6044 208.035 93.1237 207.685C92.643 207.33 92.279 206.852 92.0317 206.25C91.7844 205.643 91.6607 204.964 91.6607 204.213C91.6607 203.448 91.7844 202.766 92.0317 202.169C92.2837 201.567 92.6524 201.093 93.1377 200.748C93.623 200.403 94.2204 200.23 94.9297 200.23C95.6204 200.23 96.213 200.405 96.7077 200.755C97.2024 201.105 97.5804 201.581 97.8417 202.183C98.1077 202.785 98.2407 203.462 98.2407 204.213C98.2407 204.969 98.1077 205.648 97.8417 206.25C97.5757 206.852 97.193 207.33 96.6937 207.685C96.1944 208.035 95.5924 208.21 94.8877 208.21ZM91.4857 211.36V200.44H92.4097V206.131H92.5217V211.36H91.4857ZM94.7827 207.251C95.31 207.251 95.7487 207.118 96.0987 206.852C96.4487 206.586 96.71 206.224 96.8827 205.767C97.06 205.305 97.1487 204.787 97.1487 204.213C97.1487 203.644 97.0624 203.13 96.8897 202.673C96.717 202.216 96.4534 201.854 96.0987 201.588C95.7487 201.322 95.303 201.189 94.7617 201.189C94.2344 201.189 93.7957 201.317 93.4457 201.574C93.1004 201.831 92.8414 202.188 92.6687 202.645C92.496 203.098 92.4097 203.62 92.4097 204.213C92.4097 204.796 92.496 205.319 92.6687 205.781C92.8414 206.238 93.1027 206.598 93.4527 206.859C93.8027 207.12 94.246 207.251 94.7827 207.251ZM105.238 208V204.143C105.238 203.723 105.198 203.338 105.119 202.988C105.04 202.633 104.911 202.325 104.734 202.064C104.561 201.798 104.335 201.593 104.055 201.448C103.78 201.303 103.444 201.231 103.047 201.231C102.683 201.231 102.361 201.294 102.081 201.42C101.806 201.546 101.572 201.728 101.381 201.966C101.194 202.199 101.052 202.484 100.954 202.82C100.856 203.156 100.807 203.539 100.807 203.968L100.079 203.807C100.079 203.032 100.214 202.381 100.485 201.854C100.756 201.327 101.129 200.928 101.605 200.657C102.081 200.386 102.627 200.251 103.243 200.251C103.696 200.251 104.09 200.321 104.426 200.461C104.767 200.601 105.054 200.79 105.287 201.028C105.525 201.266 105.716 201.539 105.861 201.847C106.006 202.15 106.111 202.475 106.176 202.82C106.241 203.161 106.274 203.501 106.274 203.842V208H105.238ZM99.7709 208V197.92H100.702V203.611H100.807V208H99.7709ZM111.247 208.21C110.496 208.21 109.854 208.04 109.322 207.699C108.79 207.358 108.382 206.887 108.097 206.285C107.813 205.683 107.67 204.992 107.67 204.213C107.67 203.42 107.815 202.724 108.104 202.127C108.394 201.53 108.804 201.065 109.336 200.734C109.873 200.398 110.51 200.23 111.247 200.23C112.003 200.23 112.647 200.4 113.179 200.741C113.716 201.077 114.124 201.546 114.404 202.148C114.689 202.745 114.831 203.434 114.831 204.213C114.831 205.006 114.689 205.704 114.404 206.306C114.12 206.903 113.709 207.37 113.172 207.706C112.636 208.042 111.994 208.21 111.247 208.21ZM111.247 207.223C112.087 207.223 112.713 206.945 113.123 206.39C113.534 205.83 113.739 205.104 113.739 204.213C113.739 203.298 113.532 202.57 113.116 202.029C112.706 201.488 112.083 201.217 111.247 201.217C110.683 201.217 110.216 201.345 109.847 201.602C109.483 201.854 109.21 202.206 109.028 202.659C108.851 203.107 108.762 203.625 108.762 204.213C108.762 205.123 108.972 205.853 109.392 206.404C109.812 206.95 110.431 207.223 111.247 207.223ZM120.492 208C120.067 208.089 119.647 208.124 119.232 208.105C118.821 208.086 118.452 207.998 118.126 207.839C117.804 207.68 117.559 207.433 117.391 207.097C117.255 206.817 117.181 206.535 117.167 206.25C117.157 205.961 117.153 205.632 117.153 205.263V198.34H118.175V205.221C118.175 205.538 118.177 205.804 118.182 206.019C118.191 206.229 118.24 206.416 118.329 206.579C118.497 206.892 118.763 207.078 119.127 207.139C119.495 207.2 119.95 207.186 120.492 207.097V208ZM115.536 201.322V200.44H120.492V201.322H115.536ZM124.865 208.21C124.113 208.21 123.472 208.04 122.94 207.699C122.408 207.358 121.999 206.887 121.715 206.285C121.43 205.683 121.288 204.992 121.288 204.213C121.288 203.42 121.432 202.724 121.722 202.127C122.011 201.53 122.422 201.065 122.954 200.734C123.49 200.398 124.127 200.23 124.865 200.23C125.621 200.23 126.265 200.4 126.797 200.741C127.333 201.077 127.742 201.546 128.022 202.148C128.306 202.745 128.449 203.434 128.449 204.213C128.449 205.006 128.306 205.704 128.022 206.306C127.737 206.903 127.326 207.37 126.79 207.706C126.253 208.042 125.611 208.21 124.865 208.21ZM124.865 207.223C125.705 207.223 126.33 206.945 126.741 206.39C127.151 205.83 127.357 205.104 127.357 204.213C127.357 203.298 127.149 202.57 126.734 202.029C126.323 201.488 125.7 201.217 124.865 201.217C124.3 201.217 123.833 201.345 123.465 201.602C123.101 201.854 122.828 202.206 122.646 202.659C122.468 203.107 122.38 203.625 122.38 204.213C122.38 205.123 122.59 205.853 123.01 206.404C123.43 206.95 124.048 207.223 124.865 207.223ZM138.255 208V204.143C138.255 203.723 138.216 203.338 138.136 202.988C138.057 202.633 137.929 202.325 137.751 202.064C137.579 201.798 137.352 201.593 137.072 201.448C136.797 201.303 136.461 201.231 136.064 201.231C135.7 201.231 135.378 201.294 135.098 201.42C134.823 201.546 134.59 201.728 134.398 201.966C134.212 202.199 134.069 202.484 133.971 202.82C133.873 203.156 133.824 203.539 133.824 203.968L133.096 203.807C133.096 203.032 133.232 202.381 133.502 201.854C133.773 201.327 134.146 200.928 134.622 200.657C135.098 200.386 135.644 200.251 136.26 200.251C136.713 200.251 137.107 200.321 137.443 200.461C137.784 200.601 138.071 200.79 138.304 201.028C138.542 201.266 138.734 201.539 138.878 201.847C139.023 202.15 139.128 202.475 139.193 202.82C139.259 203.161 139.291 203.501 139.291 203.842V208H138.255ZM132.788 208V197.92H133.719V203.611H133.824V208H132.788ZM144.307 208.21C143.57 208.21 142.93 208.047 142.389 207.72C141.852 207.393 141.435 206.934 141.136 206.341C140.837 205.748 140.688 205.053 140.688 204.255C140.688 203.429 140.835 202.715 141.129 202.113C141.423 201.511 141.836 201.047 142.368 200.72C142.905 200.393 143.537 200.23 144.265 200.23C145.012 200.23 145.649 200.403 146.176 200.748C146.703 201.089 147.102 201.579 147.373 202.218C147.644 202.857 147.767 203.62 147.744 204.507H146.694V204.143C146.675 203.163 146.463 202.423 146.057 201.924C145.656 201.425 145.068 201.175 144.293 201.175C143.481 201.175 142.858 201.439 142.424 201.966C141.995 202.493 141.78 203.245 141.78 204.22C141.78 205.172 141.995 205.912 142.424 206.439C142.858 206.962 143.472 207.223 144.265 207.223C144.806 207.223 145.278 207.099 145.679 206.852C146.085 206.6 146.405 206.238 146.638 205.767L147.597 206.138C147.298 206.796 146.857 207.307 146.274 207.671C145.695 208.03 145.04 208.21 144.307 208.21ZM141.416 204.507V203.646H147.191V204.507H141.416ZM149.437 208V197.71H150.466V208H149.437ZM155.96 208.21C155.265 208.21 154.677 208.035 154.196 207.685C153.715 207.33 153.351 206.852 153.104 206.25C152.857 205.643 152.733 204.964 152.733 204.213C152.733 203.448 152.857 202.766 153.104 202.169C153.356 201.567 153.725 201.093 154.21 200.748C154.695 200.403 155.293 200.23 156.002 200.23C156.693 200.23 157.285 200.405 157.78 200.755C158.275 201.105 158.653 201.581 158.914 202.183C159.18 202.785 159.313 203.462 159.313 204.213C159.313 204.969 159.18 205.648 158.914 206.25C158.648 206.852 158.265 207.33 157.766 207.685C157.267 208.035 156.665 208.21 155.96 208.21ZM152.558 211.36V200.44H153.482V206.131H153.594V211.36H152.558ZM155.855 207.251C156.382 207.251 156.821 207.118 157.171 206.852C157.521 206.586 157.782 206.224 157.955 205.767C158.132 205.305 158.221 204.787 158.221 204.213C158.221 203.644 158.135 203.13 157.962 202.673C157.789 202.216 157.526 201.854 157.171 201.588C156.821 201.322 156.375 201.189 155.834 201.189C155.307 201.189 154.868 201.317 154.518 201.574C154.173 201.831 153.914 202.188 153.741 202.645C153.568 203.098 153.482 203.62 153.482 204.213C153.482 204.796 153.568 205.319 153.741 205.781C153.914 206.238 154.175 206.598 154.525 206.859C154.875 207.12 155.318 207.251 155.855 207.251ZM163.603 208.203C162.716 208.203 161.986 208.012 161.412 207.629C160.842 207.246 160.492 206.714 160.362 206.033L161.412 205.858C161.524 206.287 161.778 206.63 162.175 206.887C162.576 207.139 163.071 207.265 163.659 207.265C164.233 207.265 164.685 207.146 165.017 206.908C165.348 206.665 165.514 206.336 165.514 205.921C165.514 205.688 165.46 205.499 165.353 205.354C165.25 205.205 165.038 205.067 164.716 204.941C164.394 204.815 163.913 204.666 163.274 204.493C162.588 204.306 162.051 204.12 161.664 203.933C161.276 203.746 161.001 203.532 160.838 203.289C160.674 203.042 160.593 202.741 160.593 202.386C160.593 201.957 160.714 201.581 160.957 201.259C161.199 200.932 161.535 200.68 161.965 200.503C162.394 200.321 162.893 200.23 163.463 200.23C164.032 200.23 164.541 200.323 164.989 200.51C165.441 200.692 165.805 200.949 166.081 201.28C166.356 201.611 166.519 201.996 166.571 202.435L165.521 202.624C165.451 202.181 165.229 201.831 164.856 201.574C164.487 201.313 164.018 201.177 163.449 201.168C162.912 201.154 162.476 201.257 162.14 201.476C161.804 201.691 161.636 201.978 161.636 202.337C161.636 202.538 161.696 202.71 161.818 202.855C161.939 202.995 162.158 203.128 162.476 203.254C162.798 203.38 163.255 203.518 163.848 203.667C164.543 203.844 165.089 204.031 165.486 204.227C165.882 204.423 166.165 204.654 166.333 204.92C166.501 205.186 166.585 205.515 166.585 205.907C166.585 206.621 166.319 207.183 165.787 207.594C165.259 208 164.531 208.203 163.603 208.203ZM174.335 208.21C173.64 208.21 173.052 208.035 172.571 207.685C172.09 207.33 171.726 206.852 171.479 206.25C171.232 205.643 171.108 204.964 171.108 204.213C171.108 203.448 171.232 202.766 171.479 202.169C171.731 201.567 172.1 201.093 172.585 200.748C173.07 200.403 173.668 200.23 174.377 200.23C175.068 200.23 175.66 200.405 176.155 200.755C176.65 201.105 177.028 201.581 177.289 202.183C177.555 202.785 177.688 203.462 177.688 204.213C177.688 204.969 177.555 205.648 177.289 206.25C177.023 206.852 176.64 207.33 176.141 207.685C175.642 208.035 175.04 208.21 174.335 208.21ZM170.933 211.36V200.44H171.857V206.131H171.969V211.36H170.933ZM174.23 207.251C174.757 207.251 175.196 207.118 175.546 206.852C175.896 206.586 176.157 206.224 176.33 205.767C176.507 205.305 176.596 204.787 176.596 204.213C176.596 203.644 176.51 203.13 176.337 202.673C176.164 202.216 175.901 201.854 175.546 201.588C175.196 201.322 174.75 201.189 174.209 201.189C173.682 201.189 173.243 201.317 172.893 201.574C172.548 201.831 172.289 202.188 172.116 202.645C171.943 203.098 171.857 203.62 171.857 204.213C171.857 204.796 171.943 205.319 172.116 205.781C172.289 206.238 172.55 206.598 172.9 206.859C173.25 207.12 173.693 207.251 174.23 207.251ZM182.424 208.21C181.687 208.21 181.047 208.047 180.506 207.72C179.969 207.393 179.552 206.934 179.253 206.341C178.954 205.748 178.805 205.053 178.805 204.255C178.805 203.429 178.952 202.715 179.246 202.113C179.54 201.511 179.953 201.047 180.485 200.72C181.022 200.393 181.654 200.23 182.382 200.23C183.129 200.23 183.766 200.403 184.293 200.748C184.82 201.089 185.219 201.579 185.49 202.218C185.761 202.857 185.884 203.62 185.861 204.507H184.811V204.143C184.792 203.163 184.58 202.423 184.174 201.924C183.773 201.425 183.185 201.175 182.41 201.175C181.598 201.175 180.975 201.439 180.541 201.966C180.112 202.493 179.897 203.245 179.897 204.22C179.897 205.172 180.112 205.912 180.541 206.439C180.975 206.962 181.589 207.223 182.382 207.223C182.923 207.223 183.395 207.099 183.796 206.852C184.202 206.6 184.522 206.238 184.755 205.767L185.714 206.138C185.415 206.796 184.974 207.307 184.391 207.671C183.812 208.03 183.157 208.21 182.424 208.21ZM179.533 204.507V203.646H185.308V204.507H179.533ZM190.572 208.21C189.82 208.21 189.179 208.04 188.647 207.699C188.115 207.358 187.706 206.887 187.422 206.285C187.137 205.683 186.995 204.992 186.995 204.213C186.995 203.42 187.139 202.724 187.429 202.127C187.718 201.53 188.129 201.065 188.661 200.734C189.197 200.398 189.834 200.23 190.572 200.23C191.328 200.23 191.972 200.4 192.504 200.741C193.04 201.077 193.449 201.546 193.729 202.148C194.013 202.745 194.156 203.434 194.156 204.213C194.156 205.006 194.013 205.704 193.729 206.306C193.444 206.903 193.033 207.37 192.497 207.706C191.96 208.042 191.318 208.21 190.572 208.21ZM190.572 207.223C191.412 207.223 192.037 206.945 192.448 206.39C192.858 205.83 193.064 205.104 193.064 204.213C193.064 203.298 192.856 202.57 192.441 202.029C192.03 201.488 191.407 201.217 190.572 201.217C190.007 201.217 189.54 201.345 189.172 201.602C188.808 201.854 188.535 202.206 188.353 202.659C188.175 203.107 188.087 203.625 188.087 204.213C188.087 205.123 188.297 205.853 188.717 206.404C189.137 206.95 189.755 207.223 190.572 207.223ZM199.095 208.21C198.399 208.21 197.811 208.035 197.331 207.685C196.85 207.33 196.486 206.852 196.239 206.25C195.991 205.643 195.868 204.964 195.868 204.213C195.868 203.448 195.991 202.766 196.239 202.169C196.491 201.567 196.859 201.093 197.345 200.748C197.83 200.403 198.427 200.23 199.137 200.23C199.827 200.23 200.42 200.405 200.915 200.755C201.409 201.105 201.787 201.581 202.049 202.183C202.315 202.785 202.448 203.462 202.448 204.213C202.448 204.969 202.315 205.648 202.049 206.25C201.783 206.852 201.4 207.33 200.901 207.685C200.401 208.035 199.799 208.21 199.095 208.21ZM195.693 211.36V200.44H196.617V206.131H196.729V211.36H195.693ZM198.99 207.251C199.517 207.251 199.956 207.118 200.306 206.852C200.656 206.586 200.917 206.224 201.09 205.767C201.267 205.305 201.356 204.787 201.356 204.213C201.356 203.644 201.269 203.13 201.097 202.673C200.924 202.216 200.66 201.854 200.306 201.588C199.956 201.322 199.51 201.189 198.969 201.189C198.441 201.189 198.003 201.317 197.653 201.574C197.307 201.831 197.048 202.188 196.876 202.645C196.703 203.098 196.617 203.62 196.617 204.213C196.617 204.796 196.703 205.319 196.876 205.781C197.048 206.238 197.31 206.598 197.66 206.859C198.01 207.12 198.453 207.251 198.99 207.251ZM204.125 208V197.71H205.154V208H204.125ZM210.451 208.21C209.714 208.21 209.075 208.047 208.533 207.72C207.997 207.393 207.579 206.934 207.28 206.341C206.982 205.748 206.832 205.053 206.832 204.255C206.832 203.429 206.979 202.715 207.273 202.113C207.567 201.511 207.98 201.047 208.512 200.72C209.049 200.393 209.681 200.23 210.409 200.23C211.156 200.23 211.793 200.403 212.32 200.748C212.848 201.089 213.247 201.579 213.517 202.218C213.788 202.857 213.912 203.62 213.888 204.507H212.838V204.143C212.82 203.163 212.607 202.423 212.201 201.924C211.8 201.425 211.212 201.175 210.437 201.175C209.625 201.175 209.002 201.439 208.568 201.966C208.139 202.493 207.924 203.245 207.924 204.22C207.924 205.172 208.139 205.912 208.568 206.439C209.002 206.962 209.616 207.223 210.409 207.223C210.951 207.223 211.422 207.099 211.823 206.852C212.229 206.6 212.549 206.238 212.782 205.767L213.741 206.138C213.443 206.796 213.002 207.307 212.418 207.671C211.84 208.03 211.184 208.21 210.451 208.21ZM207.56 204.507V203.646H213.335V204.507H207.56ZM218.245 208V200.44H219.169V202.26L218.987 202.022C219.071 201.798 219.18 201.593 219.316 201.406C219.451 201.215 219.598 201.058 219.757 200.937C219.953 200.764 220.181 200.634 220.443 200.545C220.704 200.452 220.968 200.398 221.234 200.384C221.5 200.365 221.742 200.384 221.962 200.44V201.406C221.686 201.336 221.385 201.32 221.059 201.357C220.732 201.394 220.431 201.525 220.156 201.749C219.904 201.945 219.715 202.181 219.589 202.456C219.463 202.727 219.379 203.016 219.337 203.324C219.295 203.627 219.274 203.928 219.274 204.227V208H218.245ZM226.352 208.21C225.615 208.21 224.975 208.047 224.434 207.72C223.897 207.393 223.48 206.934 223.181 206.341C222.882 205.748 222.733 205.053 222.733 204.255C222.733 203.429 222.88 202.715 223.174 202.113C223.468 201.511 223.881 201.047 224.413 200.72C224.95 200.393 225.582 200.23 226.31 200.23C227.057 200.23 227.694 200.403 228.221 200.748C228.748 201.089 229.147 201.579 229.418 202.218C229.689 202.857 229.812 203.62 229.789 204.507H228.739V204.143C228.72 203.163 228.508 202.423 228.102 201.924C227.701 201.425 227.113 201.175 226.338 201.175C225.526 201.175 224.903 201.439 224.469 201.966C224.04 202.493 223.825 203.245 223.825 204.22C223.825 205.172 224.04 205.912 224.469 206.439C224.903 206.962 225.517 207.223 226.31 207.223C226.851 207.223 227.323 207.099 227.724 206.852C228.13 206.6 228.45 206.238 228.683 205.767L229.642 206.138C229.343 206.796 228.902 207.307 228.319 207.671C227.74 208.03 227.085 208.21 226.352 208.21ZM223.461 204.507V203.646H229.236V204.507H223.461ZM234.478 208.21C233.718 208.21 233.074 208.04 232.546 207.699C232.019 207.358 231.618 206.889 231.342 206.292C231.072 205.69 230.932 204.999 230.922 204.22C230.932 203.427 231.076 202.731 231.356 202.134C231.636 201.532 232.04 201.065 232.567 200.734C233.095 200.398 233.734 200.23 234.485 200.23C235.251 200.23 235.916 200.417 236.48 200.79C237.05 201.163 237.439 201.674 237.649 202.323L236.641 202.645C236.464 202.192 236.182 201.842 235.794 201.595C235.412 201.343 234.973 201.217 234.478 201.217C233.923 201.217 233.463 201.345 233.099 201.602C232.735 201.854 232.465 202.206 232.287 202.659C232.11 203.112 232.019 203.632 232.014 204.22C232.024 205.125 232.234 205.853 232.644 206.404C233.055 206.95 233.666 207.223 234.478 207.223C234.992 207.223 235.428 207.106 235.787 206.873C236.151 206.635 236.427 206.29 236.613 205.837L237.649 206.145C237.369 206.817 236.959 207.33 236.417 207.685C235.876 208.035 235.23 208.21 234.478 208.21ZM242.046 208.21C241.295 208.21 240.653 208.04 240.121 207.699C239.589 207.358 239.181 206.887 238.896 206.285C238.612 205.683 238.469 204.992 238.469 204.213C238.469 203.42 238.614 202.724 238.903 202.127C239.193 201.53 239.603 201.065 240.135 200.734C240.672 200.398 241.309 200.23 242.046 200.23C242.802 200.23 243.446 200.4 243.978 200.741C244.515 201.077 244.923 201.546 245.203 202.148C245.488 202.745 245.63 203.434 245.63 204.213C245.63 205.006 245.488 205.704 245.203 206.306C244.919 206.903 244.508 207.37 243.971 207.706C243.435 208.042 242.793 208.21 242.046 208.21ZM242.046 207.223C242.886 207.223 243.512 206.945 243.922 206.39C244.333 205.83 244.538 205.104 244.538 204.213C244.538 203.298 244.331 202.57 243.915 202.029C243.505 201.488 242.882 201.217 242.046 201.217C241.482 201.217 241.015 201.345 240.646 201.602C240.282 201.854 240.009 202.206 239.827 202.659C239.65 203.107 239.561 203.625 239.561 204.213C239.561 205.123 239.771 205.853 240.191 206.404C240.611 206.95 241.23 207.223 242.046 207.223ZM250.177 211.57C249.79 211.57 249.407 211.512 249.029 211.395C248.656 211.283 248.311 211.103 247.993 210.856C247.676 210.613 247.41 210.296 247.195 209.904L248.126 209.386C248.336 209.806 248.63 210.107 249.008 210.289C249.391 210.476 249.781 210.569 250.177 210.569C250.723 210.569 251.164 210.466 251.5 210.261C251.841 210.06 252.088 209.762 252.242 209.365C252.396 208.968 252.471 208.474 252.466 207.881V205.865H252.585V200.44H253.502V207.895C253.502 208.11 253.495 208.315 253.481 208.511C253.472 208.712 253.451 208.908 253.418 209.099C253.33 209.664 253.145 210.128 252.865 210.492C252.59 210.856 252.226 211.127 251.773 211.304C251.325 211.481 250.793 211.57 250.177 211.57ZM250.107 208.21C249.403 208.21 248.801 208.035 248.301 207.685C247.802 207.33 247.419 206.852 247.153 206.25C246.887 205.648 246.754 204.969 246.754 204.213C246.754 203.462 246.885 202.785 247.146 202.183C247.412 201.581 247.793 201.105 248.287 200.755C248.782 200.405 249.375 200.23 250.065 200.23C250.775 200.23 251.372 200.403 251.857 200.748C252.343 201.093 252.709 201.567 252.956 202.169C253.208 202.766 253.334 203.448 253.334 204.213C253.334 204.964 253.211 205.643 252.963 206.25C252.716 206.852 252.352 207.33 251.871 207.685C251.391 208.035 250.803 208.21 250.107 208.21ZM250.212 207.251C250.749 207.251 251.192 207.12 251.542 206.859C251.892 206.598 252.154 206.238 252.326 205.781C252.499 205.319 252.585 204.796 252.585 204.213C252.585 203.62 252.499 203.098 252.326 202.645C252.154 202.188 251.892 201.831 251.542 201.574C251.197 201.317 250.761 201.189 250.233 201.189C249.692 201.189 249.244 201.322 248.889 201.588C248.535 201.854 248.271 202.216 248.098 202.673C247.93 203.13 247.846 203.644 247.846 204.213C247.846 204.787 247.933 205.305 248.105 205.767C248.283 206.224 248.546 206.586 248.896 206.852C249.246 207.118 249.685 207.251 250.212 207.251ZM260.919 208V204.143C260.919 203.723 260.88 203.338 260.8 202.988C260.721 202.633 260.593 202.325 260.415 202.064C260.243 201.798 260.016 201.593 259.736 201.448C259.461 201.303 259.125 201.231 258.728 201.231C258.364 201.231 258.042 201.294 257.762 201.42C257.487 201.546 257.254 201.728 257.062 201.966C256.876 202.199 256.733 202.484 256.635 202.82C256.537 203.156 256.488 203.539 256.488 203.968L255.76 203.807C255.76 203.032 255.896 202.381 256.166 201.854C256.437 201.327 256.81 200.928 257.286 200.657C257.762 200.386 258.308 200.251 258.924 200.251C259.377 200.251 259.771 200.321 260.107 200.461C260.448 200.601 260.735 200.79 260.968 201.028C261.206 201.266 261.398 201.539 261.542 201.847C261.687 202.15 261.792 202.475 261.857 202.82C261.923 203.161 261.955 203.501 261.955 203.842V208H260.919ZM255.452 208V200.44H256.383V202.302H256.488V208H255.452ZM263.912 199.005V197.85H264.941V199.005H263.912ZM263.912 208V200.44H264.941V208H263.912ZM266.34 208V207.783L271.219 201.399H266.704V200.44H272.913V200.678L268.041 207.041H272.647V208H266.34ZM277.088 208.21C276.351 208.21 275.712 208.047 275.17 207.72C274.634 207.393 274.216 206.934 273.917 206.341C273.619 205.748 273.469 205.053 273.469 204.255C273.469 203.429 273.616 202.715 273.91 202.113C274.204 201.511 274.617 201.047 275.149 200.72C275.686 200.393 276.318 200.23 277.046 200.23C277.793 200.23 278.43 200.403 278.957 200.748C279.485 201.089 279.884 201.579 280.154 202.218C280.425 202.857 280.549 203.62 280.525 204.507H279.475V204.143C279.457 203.163 279.244 202.423 278.838 201.924C278.437 201.425 277.849 201.175 277.074 201.175C276.262 201.175 275.639 201.439 275.205 201.966C274.776 202.493 274.561 203.245 274.561 204.22C274.561 205.172 274.776 205.912 275.205 206.439C275.639 206.962 276.253 207.223 277.046 207.223C277.588 207.223 278.059 207.099 278.46 206.852C278.866 206.6 279.186 206.238 279.419 205.767L280.378 206.138C280.08 206.796 279.639 207.307 279.055 207.671C278.477 208.03 277.821 208.21 277.088 208.21ZM274.197 204.507V203.646H279.972V204.507H274.197ZM285.959 211.36L287.422 207.391L287.443 208.567L284.132 200.44H285.224L287.94 207.237H287.492L289.998 200.44H291.048L286.988 211.36H285.959ZM295.148 208.21C294.396 208.21 293.755 208.04 293.223 207.699C292.691 207.358 292.282 206.887 291.998 206.285C291.713 205.683 291.571 204.992 291.571 204.213C291.571 203.42 291.715 202.724 292.005 202.127C292.294 201.53 292.705 201.065 293.237 200.734C293.773 200.398 294.41 200.23 295.148 200.23C295.904 200.23 296.548 200.4 297.08 200.741C297.616 201.077 298.025 201.546 298.305 202.148C298.589 202.745 298.732 203.434 298.732 204.213C298.732 205.006 298.589 205.704 298.305 206.306C298.02 206.903 297.609 207.37 297.073 207.706C296.536 208.042 295.894 208.21 295.148 208.21ZM295.148 207.223C295.988 207.223 296.613 206.945 297.024 206.39C297.434 205.83 297.64 205.104 297.64 204.213C297.64 203.298 297.432 202.57 297.017 202.029C296.606 201.488 295.983 201.217 295.148 201.217C294.583 201.217 294.116 201.345 293.748 201.602C293.384 201.854 293.111 202.206 292.929 202.659C292.751 203.107 292.663 203.625 292.663 204.213C292.663 205.123 292.873 205.853 293.293 206.404C293.713 206.95 294.331 207.223 295.148 207.223ZM303.167 208.189C302.714 208.189 302.318 208.119 301.977 207.979C301.641 207.839 301.354 207.65 301.116 207.412C300.883 207.174 300.694 206.903 300.549 206.6C300.404 206.292 300.299 205.968 300.234 205.627C300.169 205.282 300.136 204.939 300.136 204.598V200.44H301.172V204.297C301.172 204.712 301.212 205.097 301.291 205.452C301.37 205.807 301.496 206.117 301.669 206.383C301.846 206.644 302.073 206.847 302.348 206.992C302.628 207.137 302.966 207.209 303.363 207.209C303.727 207.209 304.047 207.146 304.322 207.02C304.602 206.894 304.835 206.714 305.022 206.481C305.213 206.243 305.358 205.956 305.456 205.62C305.554 205.279 305.603 204.897 305.603 204.472L306.331 204.633C306.331 205.408 306.196 206.059 305.925 206.586C305.654 207.113 305.281 207.512 304.805 207.783C304.329 208.054 303.783 208.189 303.167 208.189ZM305.708 208V206.138H305.603V200.44H306.632V208H305.708ZM308.784 208V206.803H309.981V208H308.784Z" fill="#5F6B63"/>
<path d="M64 186.5C64.1326 186.501 64.2598 186.449 64.3535 186.355C64.4473 186.261 64.5 186.133 64.5 186C64.5 185.867 64.4473 185.739 64.3535 185.645C64.2598 185.551 64.1326 185.499 64 185.5C64 185.5 64 185.5 64 185.5C62.586 185.508 61.1719 185.517 59.7579 185.525C53.8386 185.56 47.9193 185.595 42 185.63C27.9466 185.375 15.4453 198.088 15.8704 212C15.9052 217.919 15.9401 223.839 15.975 229.758C15.9833 231.172 15.9917 232.586 16 234C16.0083 232.586 16.0167 231.172 16.025 229.758C16.0599 223.839 16.0948 217.919 16.1297 212C15.8812 198.213 28.355 185.951 42 186.37C47.9193 186.405 53.8386 186.44 59.7579 186.475C61.1719 186.483 62.586 186.492 64 186.5Z" fill="url(#paint1_linear_65_1539)"/>
<path d="M326 186.5C325.867 186.501 325.74 186.449 325.646 186.355C325.553 186.261 325.5 186.133 325.5 186C325.5 185.867 325.553 185.739 325.646 185.645C325.74 185.551 325.867 185.499 326 185.5C326 185.5 326 185.5 326 185.5C327.414 185.508 328.828 185.517 330.242 185.525C336.161 185.56 342.081 185.595 348 185.63C362.053 185.375 374.555 198.088 374.13 212C374.095 217.919 374.06 223.839 374.025 229.758C374.017 231.172 374.008 232.586 374 234C373.992 232.586 373.983 231.172 373.975 229.758C373.94 223.839 373.905 217.919 373.87 212C374.119 198.213 361.645 185.951 348 186.37C342.081 186.405 336.161 186.44 330.242 186.475C328.828 186.483 327.414 186.492 326 186.5Z" fill="url(#paint2_linear_65_1539)"/>
<rect x="113.5" y="258.5" width="163" height="163" rx="81.5" stroke="#5F6B63" stroke-linecap="round" stroke-dasharray="10 10"/>
<path d="M183.666 318.167L185.604 314.291C186.77 311.96 187.352 310.794 188.4 310.147C189.447 309.5 190.75 309.5 193.356 309.5H195.643C198.25 309.5 199.553 309.5 200.6 310.147C201.647 310.794 202.23 311.96 203.395 314.291L205.333 318.167C209.383 318.167 211.408 318.167 212.916 319.037C213.905 319.608 214.725 320.429 215.296 321.417C216.166 322.925 216.166 324.95 216.166 329V335.5C216.166 341.628 216.166 344.692 214.262 346.596C212.359 348.5 209.295 348.5 203.166 348.5H185.833C179.705 348.5 176.641 348.5 174.737 346.596C172.833 344.692 172.833 341.628 172.833 335.5V329C172.833 324.95 172.833 322.925 173.704 321.417C174.274 320.429 175.095 319.608 176.083 319.037C177.591 318.167 179.616 318.167 183.666 318.167ZM183.666 318.167H194.5" stroke="#5F6B63" stroke-width="2.5" stroke-linecap="round" stroke-linejoin="round"/>
<path d="M202.084 333.333C202.084 337.522 198.688 340.917 194.5 340.917C190.312 340.917 186.917 337.522 186.917 333.333C186.917 329.145 190.312 325.75 194.5 325.75C198.688 325.75 202.084 329.145 202.084 333.333Z" stroke="#1A1A1A" stroke-width="2.5" stroke-linecap="round" stroke-linejoin="round"/>
<path d="M209.937 324.667H209.667M210.208 324.667C210.208 324.966 209.966 325.208 209.667 325.208C209.367 325.208 209.125 324.966 209.125 324.667C209.125 324.368 209.367 324.125 209.667 324.125C209.966 324.125 210.208 324.368 210.208 324.667Z" stroke="#1A1A1A" stroke-width="2.5" stroke-linecap="round"/>
<path d="M154.719 373V363.907H151.198V362.92H159.269V363.907H155.748V373H154.719ZM161.57 373.21C161 373.21 160.522 373.107 160.135 372.902C159.752 372.697 159.465 372.424 159.274 372.083C159.082 371.742 158.987 371.371 158.987 370.97C158.987 370.559 159.068 370.209 159.232 369.92C159.4 369.626 159.626 369.386 159.911 369.199C160.2 369.012 160.534 368.87 160.912 368.772C161.294 368.679 161.717 368.597 162.179 368.527C162.645 368.452 163.1 368.389 163.544 368.338C163.992 368.282 164.384 368.228 164.72 368.177L164.356 368.401C164.37 367.654 164.225 367.101 163.922 366.742C163.618 366.383 163.091 366.203 162.34 366.203C161.822 366.203 161.383 366.32 161.024 366.553C160.669 366.786 160.419 367.155 160.275 367.659L159.274 367.365C159.446 366.688 159.794 366.163 160.317 365.79C160.839 365.417 161.518 365.23 162.354 365.23C163.044 365.23 163.63 365.361 164.111 365.622C164.596 365.879 164.939 366.252 165.14 366.742C165.233 366.961 165.294 367.206 165.322 367.477C165.35 367.748 165.364 368.023 165.364 368.303V373H164.447V371.103L164.713 371.215C164.456 371.864 164.057 372.358 163.516 372.699C162.974 373.04 162.326 373.21 161.57 373.21ZM161.689 372.321C162.169 372.321 162.589 372.235 162.949 372.062C163.308 371.889 163.597 371.654 163.817 371.355C164.036 371.052 164.178 370.711 164.244 370.333C164.3 370.09 164.33 369.824 164.335 369.535C164.339 369.241 164.342 369.022 164.342 368.877L164.734 369.08C164.384 369.127 164.003 369.173 163.593 369.22C163.187 369.267 162.785 369.32 162.389 369.381C161.997 369.442 161.642 369.514 161.325 369.598C161.11 369.659 160.902 369.745 160.702 369.857C160.501 369.964 160.335 370.109 160.205 370.291C160.079 370.473 160.016 370.699 160.016 370.97C160.016 371.189 160.069 371.402 160.177 371.607C160.289 371.812 160.466 371.983 160.709 372.118C160.956 372.253 161.283 372.321 161.689 372.321ZM170.581 373.21C169.886 373.21 169.298 373.035 168.817 372.685C168.336 372.33 167.972 371.852 167.725 371.25C167.478 370.643 167.354 369.964 167.354 369.213C167.354 368.448 167.478 367.766 167.725 367.169C167.977 366.567 168.346 366.093 168.831 365.748C169.316 365.403 169.914 365.23 170.623 365.23C171.314 365.23 171.906 365.405 172.401 365.755C172.896 366.105 173.274 366.581 173.535 367.183C173.801 367.785 173.934 368.462 173.934 369.213C173.934 369.969 173.801 370.648 173.535 371.25C173.269 371.852 172.886 372.33 172.387 372.685C171.888 373.035 171.286 373.21 170.581 373.21ZM167.179 376.36V365.44H168.103V371.131H168.215V376.36H167.179ZM170.476 372.251C171.003 372.251 171.442 372.118 171.792 371.852C172.142 371.586 172.403 371.224 172.576 370.767C172.753 370.305 172.842 369.787 172.842 369.213C172.842 368.644 172.756 368.13 172.583 367.673C172.41 367.216 172.147 366.854 171.792 366.588C171.442 366.322 170.996 366.189 170.455 366.189C169.928 366.189 169.489 366.317 169.139 366.574C168.794 366.831 168.535 367.188 168.362 367.645C168.189 368.098 168.103 368.62 168.103 369.213C168.103 369.796 168.189 370.319 168.362 370.781C168.535 371.238 168.796 371.598 169.146 371.859C169.496 372.12 169.939 372.251 170.476 372.251ZM182.39 373C181.965 373.089 181.545 373.124 181.13 373.105C180.719 373.086 180.351 372.998 180.024 372.839C179.702 372.68 179.457 372.433 179.289 372.097C179.154 371.817 179.079 371.535 179.065 371.25C179.056 370.961 179.051 370.632 179.051 370.263V363.34H180.073V370.221C180.073 370.538 180.075 370.804 180.08 371.019C180.089 371.229 180.138 371.416 180.227 371.579C180.395 371.892 180.661 372.078 181.025 372.139C181.394 372.2 181.849 372.186 182.39 372.097V373ZM177.434 366.322V365.44H182.39V366.322H177.434ZM186.763 373.21C186.012 373.21 185.37 373.04 184.838 372.699C184.306 372.358 183.898 371.887 183.613 371.285C183.328 370.683 183.186 369.992 183.186 369.213C183.186 368.42 183.331 367.724 183.62 367.127C183.909 366.53 184.32 366.065 184.852 365.734C185.389 365.398 186.026 365.23 186.763 365.23C187.519 365.23 188.163 365.4 188.695 365.741C189.232 366.077 189.64 366.546 189.92 367.148C190.205 367.745 190.347 368.434 190.347 369.213C190.347 370.006 190.205 370.704 189.92 371.306C189.635 371.903 189.225 372.37 188.688 372.706C188.151 373.042 187.51 373.21 186.763 373.21ZM186.763 372.223C187.603 372.223 188.228 371.945 188.639 371.39C189.05 370.83 189.255 370.104 189.255 369.213C189.255 368.298 189.047 367.57 188.632 367.029C188.221 366.488 187.598 366.217 186.763 366.217C186.198 366.217 185.732 366.345 185.363 366.602C184.999 366.854 184.726 367.206 184.544 367.659C184.367 368.107 184.278 368.625 184.278 369.213C184.278 370.123 184.488 370.853 184.908 371.404C185.328 371.95 185.946 372.223 186.763 372.223ZM197.585 373.189C197.132 373.189 196.736 373.119 196.395 372.979C196.059 372.839 195.772 372.65 195.534 372.412C195.301 372.174 195.112 371.903 194.967 371.6C194.822 371.292 194.717 370.968 194.652 370.627C194.587 370.282 194.554 369.939 194.554 369.598V365.44H195.59V369.297C195.59 369.712 195.63 370.097 195.709 370.452C195.788 370.807 195.914 371.117 196.087 371.383C196.264 371.644 196.491 371.847 196.766 371.992C197.046 372.137 197.384 372.209 197.781 372.209C198.145 372.209 198.465 372.146 198.74 372.02C199.02 371.894 199.253 371.714 199.44 371.481C199.631 371.243 199.776 370.956 199.874 370.62C199.972 370.279 200.021 369.897 200.021 369.472L200.749 369.633C200.749 370.408 200.614 371.059 200.343 371.586C200.072 372.113 199.699 372.512 199.223 372.783C198.747 373.054 198.201 373.189 197.585 373.189ZM200.126 373V371.138H200.021V365.44H201.05V373H200.126ZM206.401 373.21C205.706 373.21 205.118 373.035 204.637 372.685C204.157 372.33 203.793 371.852 203.545 371.25C203.298 370.643 203.174 369.964 203.174 369.213C203.174 368.448 203.298 367.766 203.545 367.169C203.797 366.567 204.166 366.093 204.651 365.748C205.137 365.403 205.734 365.23 206.443 365.23C207.134 365.23 207.727 365.405 208.221 365.755C208.716 366.105 209.094 366.581 209.355 367.183C209.621 367.785 209.754 368.462 209.754 369.213C209.754 369.969 209.621 370.648 209.355 371.25C209.089 371.852 208.707 372.33 208.207 372.685C207.708 373.035 207.106 373.21 206.401 373.21ZM202.999 376.36V365.44H203.923V371.131H204.035V376.36H202.999ZM206.296 372.251C206.824 372.251 207.262 372.118 207.612 371.852C207.962 371.586 208.224 371.224 208.396 370.767C208.574 370.305 208.662 369.787 208.662 369.213C208.662 368.644 208.576 368.13 208.403 367.673C208.231 367.216 207.967 366.854 207.612 366.588C207.262 366.322 206.817 366.189 206.275 366.189C205.748 366.189 205.309 366.317 204.959 366.574C204.614 366.831 204.355 367.188 204.182 367.645C204.01 368.098 203.923 368.62 203.923 369.213C203.923 369.796 204.01 370.319 204.182 370.781C204.355 371.238 204.616 371.598 204.966 371.859C205.316 372.12 205.76 372.251 206.296 372.251ZM211.432 373V362.71H212.461V373H211.432ZM217.716 373.21C216.965 373.21 216.323 373.04 215.791 372.699C215.259 372.358 214.851 371.887 214.566 371.285C214.281 370.683 214.139 369.992 214.139 369.213C214.139 368.42 214.284 367.724 214.573 367.127C214.862 366.53 215.273 366.065 215.805 365.734C216.342 365.398 216.979 365.23 217.716 365.23C218.472 365.23 219.116 365.4 219.648 365.741C220.185 366.077 220.593 366.546 220.873 367.148C221.158 367.745 221.3 368.434 221.3 369.213C221.3 370.006 221.158 370.704 220.873 371.306C220.588 371.903 220.178 372.37 219.641 372.706C219.104 373.042 218.463 373.21 217.716 373.21ZM217.716 372.223C218.556 372.223 219.181 371.945 219.592 371.39C220.003 370.83 220.208 370.104 220.208 369.213C220.208 368.298 220 367.57 219.585 367.029C219.174 366.488 218.551 366.217 217.716 366.217C217.151 366.217 216.685 366.345 216.316 366.602C215.952 366.854 215.679 367.206 215.497 367.659C215.32 368.107 215.231 368.625 215.231 369.213C215.231 370.123 215.441 370.853 215.861 371.404C216.281 371.95 216.899 372.223 217.716 372.223ZM225.007 373.21C224.438 373.21 223.96 373.107 223.572 372.902C223.19 372.697 222.903 372.424 222.711 372.083C222.52 371.742 222.424 371.371 222.424 370.97C222.424 370.559 222.506 370.209 222.669 369.92C222.837 369.626 223.064 369.386 223.348 369.199C223.638 369.012 223.971 368.87 224.349 368.772C224.732 368.679 225.154 368.597 225.616 368.527C226.083 368.452 226.538 368.389 226.981 368.338C227.429 368.282 227.821 368.228 228.157 368.177L227.793 368.401C227.807 367.654 227.663 367.101 227.359 366.742C227.056 366.383 226.529 366.203 225.777 366.203C225.259 366.203 224.821 366.32 224.461 366.553C224.107 366.786 223.857 367.155 223.712 367.659L222.711 367.365C222.884 366.688 223.232 366.163 223.754 365.79C224.277 365.417 224.956 365.23 225.791 365.23C226.482 365.23 227.068 365.361 227.548 365.622C228.034 365.879 228.377 366.252 228.577 366.742C228.671 366.961 228.731 367.206 228.759 367.477C228.787 367.748 228.801 368.023 228.801 368.303V373H227.884V371.103L228.15 371.215C227.894 371.864 227.495 372.358 226.953 372.699C226.412 373.04 225.763 373.21 225.007 373.21ZM225.126 372.321C225.607 372.321 226.027 372.235 226.386 372.062C226.746 371.889 227.035 371.654 227.254 371.355C227.474 371.052 227.616 370.711 227.681 370.333C227.737 370.09 227.768 369.824 227.772 369.535C227.777 369.241 227.779 369.022 227.779 368.877L228.171 369.08C227.821 369.127 227.441 369.173 227.03 369.22C226.624 369.267 226.223 369.32 225.826 369.381C225.434 369.442 225.08 369.514 224.762 369.598C224.548 369.659 224.34 369.745 224.139 369.857C223.939 369.964 223.773 370.109 223.642 370.291C223.516 370.473 223.453 370.699 223.453 370.97C223.453 371.189 223.507 371.402 223.614 371.607C223.726 371.812 223.904 371.983 224.146 372.118C224.394 372.253 224.72 372.321 225.126 372.321ZM233.557 373.21C232.852 373.21 232.25 373.035 231.751 372.685C231.251 372.33 230.869 371.852 230.603 371.25C230.337 370.648 230.204 369.969 230.204 369.213C230.204 368.462 230.334 367.785 230.596 367.183C230.862 366.581 231.242 366.105 231.737 365.755C232.231 365.405 232.824 365.23 233.515 365.23C234.224 365.23 234.821 365.403 235.307 365.748C235.792 366.093 236.158 366.567 236.406 367.169C236.658 367.766 236.784 368.448 236.784 369.213C236.784 369.964 236.66 370.643 236.413 371.25C236.165 371.852 235.801 372.33 235.321 372.685C234.84 373.035 234.252 373.21 233.557 373.21ZM233.662 372.251C234.198 372.251 234.642 372.12 234.992 371.859C235.342 371.598 235.603 371.238 235.776 370.781C235.948 370.319 236.035 369.796 236.035 369.213C236.035 368.62 235.948 368.098 235.776 367.645C235.603 367.188 235.342 366.831 234.992 366.574C234.646 366.317 234.21 366.189 233.683 366.189C233.141 366.189 232.693 366.322 232.339 366.588C231.984 366.854 231.72 367.216 231.548 367.673C231.38 368.13 231.296 368.644 231.296 369.213C231.296 369.787 231.382 370.305 231.555 370.767C231.732 371.224 231.996 371.586 232.346 371.852C232.696 372.118 233.134 372.251 233.662 372.251ZM236.035 373V367.309H235.923V362.92H236.959V373H236.035Z" fill="#5F6B63"/>
<path d="M160.59 785.21C159.886 785.21 159.251 785.093 158.686 784.86C158.126 784.622 157.662 784.286 157.293 783.852C156.929 783.418 156.691 782.902 156.579 782.305L157.629 782.13C157.797 782.783 158.152 783.297 158.693 783.67C159.235 784.039 159.881 784.223 160.632 784.223C161.127 784.223 161.57 784.146 161.962 783.992C162.354 783.833 162.662 783.609 162.886 783.32C163.11 783.031 163.222 782.688 163.222 782.291C163.222 782.03 163.176 781.808 163.082 781.626C162.989 781.439 162.865 781.285 162.711 781.164C162.557 781.043 162.389 780.942 162.207 780.863C162.025 780.779 161.848 780.711 161.675 780.66L159.12 779.897C158.812 779.808 158.528 779.696 158.266 779.561C158.005 779.421 157.776 779.255 157.58 779.064C157.389 778.868 157.24 778.639 157.132 778.378C157.025 778.117 156.971 777.818 156.971 777.482C156.971 776.913 157.121 776.42 157.419 776.005C157.718 775.59 158.126 775.27 158.644 775.046C159.162 774.822 159.753 774.712 160.415 774.717C161.087 774.717 161.687 774.836 162.214 775.074C162.746 775.312 163.185 775.653 163.53 776.096C163.876 776.535 164.104 777.055 164.216 777.657L163.138 777.853C163.068 777.414 162.907 777.034 162.655 776.712C162.403 776.39 162.081 776.143 161.689 775.97C161.302 775.793 160.875 775.702 160.408 775.697C159.956 775.697 159.552 775.774 159.197 775.928C158.847 776.077 158.57 776.283 158.364 776.544C158.159 776.805 158.056 777.104 158.056 777.44C158.056 777.781 158.15 778.054 158.336 778.259C158.528 778.464 158.761 778.625 159.036 778.742C159.316 778.859 159.587 778.954 159.848 779.029L161.822 779.61C162.028 779.666 162.268 779.748 162.543 779.855C162.823 779.958 163.094 780.107 163.355 780.303C163.621 780.494 163.841 780.746 164.013 781.059C164.186 781.372 164.272 781.768 164.272 782.249C164.272 782.716 164.179 783.133 163.992 783.502C163.81 783.871 163.551 784.181 163.215 784.433C162.884 784.685 162.494 784.876 162.046 785.007C161.603 785.142 161.118 785.21 160.59 785.21ZM165.71 785L165.717 774.92H166.753V781.08L170.127 777.44H171.499L167.957 781.22L171.961 785H170.463L166.753 781.36V785H165.71ZM172.803 776.005V774.85H173.832V776.005H172.803ZM172.803 785V777.44H173.832V785H172.803ZM179.325 785.21C178.63 785.21 178.042 785.035 177.561 784.685C177.081 784.33 176.717 783.852 176.469 783.25C176.222 782.643 176.098 781.964 176.098 781.213C176.098 780.448 176.222 779.766 176.469 779.169C176.721 778.567 177.09 778.093 177.575 777.748C178.061 777.403 178.658 777.23 179.367 777.23C180.058 777.23 180.651 777.405 181.145 777.755C181.64 778.105 182.018 778.581 182.279 779.183C182.545 779.785 182.678 780.462 182.678 781.213C182.678 781.969 182.545 782.648 182.279 783.25C182.013 783.852 181.631 784.33 181.131 784.685C180.632 785.035 180.03 785.21 179.325 785.21ZM175.923 788.36V777.44H176.847V783.131H176.959V788.36H175.923ZM179.22 784.251C179.748 784.251 180.186 784.118 180.536 783.852C180.886 783.586 181.148 783.224 181.32 782.767C181.498 782.305 181.586 781.787 181.586 781.213C181.586 780.644 181.5 780.13 181.327 779.673C181.155 779.216 180.891 778.854 180.536 778.588C180.186 778.322 179.741 778.189 179.199 778.189C178.672 778.189 178.233 778.317 177.883 778.574C177.538 778.831 177.279 779.188 177.106 779.645C176.934 780.098 176.847 780.62 176.847 781.213C176.847 781.796 176.934 782.319 177.106 782.781C177.279 783.238 177.54 783.598 177.89 783.859C178.24 784.12 178.684 784.251 179.22 784.251ZM187.767 785V776.88C187.767 776.684 187.776 776.49 187.795 776.299C187.818 776.108 187.863 775.926 187.928 775.753C187.993 775.576 188.096 775.412 188.236 775.263C188.39 775.095 188.558 774.974 188.74 774.899C188.922 774.82 189.111 774.768 189.307 774.745C189.508 774.722 189.704 774.71 189.895 774.71H190.861V775.578H189.965C189.573 775.578 189.279 775.674 189.083 775.865C188.892 776.056 188.796 776.357 188.796 776.768V785H187.767ZM186.458 778.322V777.44H190.861V778.322H186.458ZM194.865 785.21C194.113 785.21 193.472 785.04 192.94 784.699C192.408 784.358 191.999 783.887 191.715 783.285C191.43 782.683 191.288 781.992 191.288 781.213C191.288 780.42 191.432 779.724 191.722 779.127C192.011 778.53 192.422 778.065 192.954 777.734C193.49 777.398 194.127 777.23 194.865 777.23C195.621 777.23 196.265 777.4 196.797 777.741C197.333 778.077 197.742 778.546 198.022 779.148C198.306 779.745 198.449 780.434 198.449 781.213C198.449 782.006 198.306 782.704 198.022 783.306C197.737 783.903 197.326 784.37 196.79 784.706C196.253 785.042 195.611 785.21 194.865 785.21ZM194.865 784.223C195.705 784.223 196.33 783.945 196.741 783.39C197.151 782.83 197.357 782.104 197.357 781.213C197.357 780.298 197.149 779.57 196.734 779.029C196.323 778.488 195.7 778.217 194.865 778.217C194.3 778.217 193.833 778.345 193.465 778.602C193.101 778.854 192.828 779.206 192.646 779.659C192.468 780.107 192.38 780.625 192.38 781.213C192.38 782.123 192.59 782.853 193.01 783.404C193.43 783.95 194.048 784.223 194.865 784.223ZM199.993 785V777.44H200.917V779.26L200.735 779.022C200.819 778.798 200.928 778.593 201.064 778.406C201.199 778.215 201.346 778.058 201.505 777.937C201.701 777.764 201.929 777.634 202.191 777.545C202.452 777.452 202.716 777.398 202.982 777.384C203.248 777.365 203.49 777.384 203.71 777.44V778.406C203.434 778.336 203.133 778.32 202.807 778.357C202.48 778.394 202.179 778.525 201.904 778.749C201.652 778.945 201.463 779.181 201.337 779.456C201.211 779.727 201.127 780.016 201.085 780.324C201.043 780.627 201.022 780.928 201.022 781.227V785H199.993ZM213.3 785V781.143C213.3 780.723 213.261 780.338 213.181 779.988C213.102 779.633 212.974 779.325 212.796 779.064C212.624 778.798 212.397 778.593 212.117 778.448C211.842 778.303 211.506 778.231 211.109 778.231C210.745 778.231 210.423 778.294 210.143 778.42C209.868 778.546 209.635 778.728 209.443 778.966C209.257 779.199 209.114 779.484 209.016 779.82C208.918 780.156 208.869 780.539 208.869 780.968L208.141 780.807C208.141 780.032 208.277 779.381 208.547 778.854C208.818 778.327 209.191 777.928 209.667 777.657C210.143 777.386 210.689 777.251 211.305 777.251C211.758 777.251 212.152 777.321 212.488 777.461C212.829 777.601 213.116 777.79 213.349 778.028C213.587 778.266 213.779 778.539 213.923 778.847C214.068 779.15 214.173 779.475 214.238 779.82C214.304 780.161 214.336 780.501 214.336 780.842V785H213.3ZM207.833 785V777.44H208.764V779.302H208.869V785H207.833ZM219.269 785.21C218.518 785.21 217.876 785.04 217.344 784.699C216.812 784.358 216.404 783.887 216.119 783.285C215.834 782.683 215.692 781.992 215.692 781.213C215.692 780.42 215.837 779.724 216.126 779.127C216.415 778.53 216.826 778.065 217.358 777.734C217.895 777.398 218.532 777.23 219.269 777.23C220.025 777.23 220.669 777.4 221.201 777.741C221.738 778.077 222.146 778.546 222.426 779.148C222.711 779.745 222.853 780.434 222.853 781.213C222.853 782.006 222.711 782.704 222.426 783.306C222.141 783.903 221.731 784.37 221.194 784.706C220.657 785.042 220.016 785.21 219.269 785.21ZM219.269 784.223C220.109 784.223 220.734 783.945 221.145 783.39C221.556 782.83 221.761 782.104 221.761 781.213C221.761 780.298 221.553 779.57 221.138 779.029C220.727 778.488 220.104 778.217 219.269 778.217C218.704 778.217 218.238 778.345 217.869 778.602C217.505 778.854 217.232 779.206 217.05 779.659C216.873 780.107 216.784 780.625 216.784 781.213C216.784 782.123 216.994 782.853 217.414 783.404C217.834 783.95 218.452 784.223 219.269 784.223ZM225.734 785L223.424 777.433L224.453 777.44L226.245 783.313L228.044 777.44H228.982L230.781 783.313L232.587 777.44H233.609L231.299 785H230.403L228.513 778.98L226.63 785H225.734Z" fill="#1A1A1A"/>
<path d="M20.815 783.252C20.173 783.252 19.576 783.135 19.024 782.901C18.472 782.661 17.995 782.325 17.593 781.893C17.197 781.455 16.906 780.936 16.72 780.336L18.259 779.895C18.457 780.495 18.787 780.951 19.249 781.263C19.711 781.575 20.23 781.728 20.806 781.722C21.334 781.71 21.79 781.59 22.174 781.362C22.564 781.128 22.864 780.81 23.074 780.408C23.29 780.006 23.398 779.541 23.398 779.013C23.398 778.209 23.158 777.558 22.678 777.06C22.198 776.556 21.568 776.304 20.788 776.304C20.572 776.304 20.344 776.334 20.104 776.394C19.87 776.454 19.651 776.538 19.447 776.646L18.673 775.377L23.479 771.03L23.686 771.57H17.233V770.04H24.874V771.579L20.779 775.503L20.761 774.936C21.619 774.876 22.369 775.017 23.011 775.359C23.653 775.701 24.151 776.19 24.505 776.826C24.865 777.462 25.045 778.191 25.045 779.013C25.045 779.841 24.859 780.573 24.487 781.209C24.115 781.845 23.611 782.346 22.975 782.712C22.339 783.072 21.619 783.252 20.815 783.252ZM35.1285 783.27C34.1625 783.27 33.3285 783.051 32.6265 782.613C31.9305 782.175 31.3935 781.569 31.0155 780.795C30.6375 780.021 30.4485 779.133 30.4485 778.131C30.4485 777.111 30.6405 776.217 31.0245 775.449C31.4085 774.681 31.9515 774.084 32.6535 773.658C33.3555 773.226 34.1805 773.01 35.1285 773.01C36.1005 773.01 36.9375 773.229 37.6395 773.667C38.3415 774.099 38.8785 774.702 39.2505 775.476C39.6285 776.244 39.8175 777.129 39.8175 778.131C39.8175 779.145 39.6285 780.039 39.2505 780.813C38.8725 781.581 38.3325 782.184 37.6305 782.622C36.9285 783.054 36.0945 783.27 35.1285 783.27ZM35.1285 781.749C36.1365 781.749 36.8865 781.413 37.3785 780.741C37.8705 780.069 38.1165 779.199 38.1165 778.131C38.1165 777.033 37.8675 776.16 37.3695 775.512C36.8715 774.858 36.1245 774.531 35.1285 774.531C34.4505 774.531 33.8925 774.684 33.4545 774.99C33.0165 775.296 32.6895 775.719 32.4735 776.259C32.2575 776.799 32.1495 777.423 32.1495 778.131C32.1495 779.223 32.4015 780.099 32.9055 780.759C33.4095 781.419 34.1505 781.749 35.1285 781.749ZM42.7261 783V772.749C42.7261 772.497 42.7381 772.242 42.7621 771.984C42.7861 771.72 42.8401 771.465 42.9241 771.219C43.0081 770.967 43.1461 770.736 43.3381 770.526C43.5601 770.28 43.8031 770.106 44.0671 770.004C44.3311 769.896 44.5981 769.83 44.8681 769.806C45.1441 769.782 45.4051 769.77 45.6511 769.77H46.8841V771.102H45.7411C45.2671 771.102 44.9131 771.219 44.6791 771.453C44.4451 771.681 44.3281 772.029 44.3281 772.497V783H42.7261ZM41.0791 774.603V773.28H46.8841V774.603H41.0791ZM55.4791 783.252C54.8371 783.252 54.2401 783.135 53.6881 782.901C53.1361 782.661 52.6591 782.325 52.2571 781.893C51.8611 781.455 51.5701 780.936 51.3841 780.336L52.9231 779.895C53.1211 780.495 53.4511 780.951 53.9131 781.263C54.3751 781.575 54.8941 781.728 55.4701 781.722C55.9981 781.71 56.4541 781.59 56.8381 781.362C57.2281 781.128 57.5281 780.81 57.7381 780.408C57.9541 780.006 58.0621 779.541 58.0621 779.013C58.0621 778.209 57.8221 777.558 57.3421 777.06C56.8621 776.556 56.2321 776.304 55.4521 776.304C55.2361 776.304 55.0081 776.334 54.7681 776.394C54.5341 776.454 54.3151 776.538 54.1111 776.646L53.3371 775.377L58.1431 771.03L58.3501 771.57H51.8971V770.04H59.5381V771.579L55.4431 775.503L55.4251 774.936C56.2831 774.876 57.0331 775.017 57.6751 775.359C58.3171 775.701 58.8151 776.19 59.1691 776.826C59.5291 777.462 59.7091 778.191 59.7091 779.013C59.7091 779.841 59.5231 780.573 59.1511 781.209C58.7791 781.845 58.2751 782.346 57.6391 782.712C57.0031 783.072 56.2831 783.252 55.4791 783.252Z" fill="#1A1A1A"/>
<rect x="16" y="795" width="102" height="6" rx="3" fill="#E4E8E5"/>
<rect x="16" y="795" width="102" height="6" rx="3" fill="url(#paint3_linear_65_1539)"/>
<defs>
<linearGradient id="paint0_linear_65_1539" x1="195" y1="700" x2="195" y2="752" gradientUnits="userSpaceOnUse">
<stop stop-color="#1A9BFE"/>
<stop offset="1" stop-color="#2178FC"/>
</linearGradient>
<linearGradient id="paint1_linear_65_1539" x1="64" y1="186" x2="16" y2="234" gradientUnits="userSpaceOnUse">
<stop stop-color="#1C1917"/>
<stop offset="1" stop-color="#F8FAF8"/>
</linearGradient>
<linearGradient id="paint2_linear_65_1539" x1="326" y1="186" x2="374" y2="234" gradientUnits="userSpaceOnUse">
<stop stop-color="#1C1917"/>
<stop offset="1" stop-color="#F8FAF8"/>
</linearGradient>
<linearGradient id="paint3_linear_65_1539" x1="67" y1="795" x2="67" y2="801" gradientUnits="userSpaceOnUse">
<stop stop-color="#1A9BFE"/>
<stop offset="1" stop-color="#2178FC"/>
</linearGradient>
</defs>
</svg>
